<?xml version="1.0" ?><svg id="Layer_1" style="enable-background:new 0 0 500 500;" fill="black" version="1.1" viewBox="0 0 500 500" xml:space="preserve" xmlns="http://www.w3.org/2000/svg" xmlns:xlink="http://www.w3.org/1999/xlink"><style type="text/css">
	.st0{fill:none;stroke:#000000;stroke-width:10;stroke-miterlimit:10;}
</style><g id="palm_tree"><g><g><path d="M280.86,461.72l-10.99-6.3c-6.02-3.45-12.89-5.27-19.87-5.27c-5.46,0-10.77,1.08-15.76,3.22l-5.79,2.48l-1.1-6.2     c-21.7-121.95-10.56-228.53-1.99-281.21l0.41-2.49l2.25-1.15c10.72-5.49,18.36-7.72,18.68-7.81l2.27-0.65l1.95,1.34     c2.33,1.6,4.68,3.47,7,5.55l2.03,1.82l-0.43,2.69c-9.09,57.32-10.48,115.75-4.14,173.66c5.27,48.05,14.74,85.38,21.76,108.24     L280.86,461.72z M250,440.15c4.95,0,9.86,0.73,14.56,2.16c-6.66-23.5-14.5-57.62-19.12-99.84     c-6.34-57.87-5.07-116.25,3.77-173.56c-0.67-0.55-1.33-1.08-2-1.58c-2.5,0.88-6.91,2.56-12.39,5.24     c-8.26,52.01-18.39,153.36,1.36,269.52C240.65,440.8,245.28,440.15,250,440.15z"/></g></g><g><path d="M299.8,482.24H200.2l1.92-6.43c4.26-14.23,14.53-25.75,28.18-31.62c6.25-2.68,12.88-4.03,19.7-4.03    c8.72,0,17.32,2.28,24.84,6.6c11.18,6.43,19.36,16.75,23.04,29.06L299.8,482.24z M214.24,472.24h71.51    c-3.49-7-8.97-12.84-15.89-16.82c-6.01-3.45-12.88-5.27-19.87-5.27c-5.46,0-10.77,1.08-15.76,3.22    C225.47,457.14,218.43,463.84,214.24,472.24z"/></g><g><path d="M303.47,287.91l-3.66-16.5c-0.16-0.71-16.19-71.61-48.58-100.76c-1.34-1.2-2.68-2.31-4.02-3.33    c-2.83,0.99-8.13,3.02-14.64,6.36c-17.7,9.08-41.57,26.16-54.78,56l-7.72,17.44l-1.83-18.98c-0.06-0.6-1.37-14.91,2.84-31.8    c3.59-14.4,10.13-26.3,19.27-35.26c-31.42,5.62-90.72,20.43-127.37,55.81l-13.67,13.19l5.4-18.21c0.35-1.2,8.94-29.58,31.65-56.92    c16.31-19.64,42.52-41.42,81.1-47.52c-20.99-3.8-49.89-6.78-82.63-3.94l-13.83,1.2l9.89-9.74c0.66-0.65,16.58-16.15,42.94-26.13    c20.45-7.75,50.63-13.21,85.54-0.72c-13.8-13.83-37.07-31.98-67.32-36.49l-21.55-3.22l20.8-6.5c0.94-0.29,23.2-7.11,50-2.62    c22.85,3.83,52.91,16.83,71.71,56.06c2.62-5.43,6.53-12.05,12.14-18.43c11.73-13.34,33.3-28.1,69.51-22.69l18.25,2.73l-17.13,6.86    c-0.22,0.09-18.22,7.49-37.01,25.19c28.72-6.58,85.47-9.38,135.52,49.57l11.62,13.68l-17.02-5.71    c-0.68-0.23-62.38-20.56-111.14-8.31c8.16,3.34,18.85,8.8,30.11,17.48c21.45,16.53,49.11,48.43,59.14,106.54l3.04,17.61    l-11.74-13.48c-0.5-0.58-46.32-52.63-103.87-75.83c2.54,3.82,5.13,8.41,7.41,13.79c13.3,31.36,6,65.02-2.46,87.74L303.47,287.91z     M248.96,156.32l1.95,1.34c2.33,1.6,4.68,3.47,7,5.55c24.85,22.36,40.21,65.33,47.21,89.16c15.67-60.98-19.4-88.34-19.79-88.63    l-21.17-15.96l25.53,7.15c50.21,14.07,93.44,51.78,113.79,71.9c-11.33-43.93-33.62-69.14-51.31-82.89    c-21.57-16.77-41.21-20.71-41.41-20.74l-16.12-3.11l15.11-6.4c38.58-16.34,88.7-7.91,114.83-1.54    c-61.14-58.68-127.35-29.46-130.32-28.1l-19.43,8.89l13.47-16.58c12.89-15.87,26.99-26.57,37.53-33.18    c-45.8,2.3-57.23,44.69-57.74,46.7l-3.94,15.41l-5.58-14.88c-13.14-35.05-36.2-55.64-68.54-61.18    c-8.27-1.42-16.15-1.63-22.96-1.29c40.34,15.36,63.7,49.47,64.84,51.17l11.47,17.06l-18.03-9.88    c-32.35-17.73-65.31-20.45-97.96-8.09c-11.38,4.31-20.7,9.77-27.42,14.38c60.77-2.19,104.25,13.6,106.23,14.33l36.96,13.68    l-39.21-4.02c-44.31-4.55-81.21,10.45-109.66,44.54c-10.46,12.53-17.82,25.5-22.62,35.55c17.42-12.75,43.68-26.93,82.29-37.61    c31.28-8.65,55.61-10.89,56.63-10.98l29.92-2.67l-27.45,12.22c-16.34,7.27-27.17,21.03-32.19,40.88c-0.72,2.86-1.27,5.65-1.68,8.3    c14.52-21.13,33.75-34.27,48.83-42c10.72-5.49,18.36-7.72,18.68-7.81L248.96,156.32z"/></g></g></svg>