<?xml version="1.0" ?><svg id="Layer_1" style="enable-background:new 0 0 500 500;" version="1.1" viewBox="0 0 500 500" xml:space="preserve" xmlns="http://www.w3.org/2000/svg" xmlns:xlink="http://www.w3.org/1999/xlink"><style type="text/css">
	.st0{fill:none;stroke:#000000;stroke-width:10;stroke-miterlimit:10;}
</style><g id="umbrella"><g><path d="M222.8,466.61H117.64l1.92-6.43c6.65-22.27,26.72-37.42,49.96-37.72c0.23-0.01,0.47-0.01,0.7-0.01    c2.84,0,5.66,0.22,8.38,0.66c19.9,3.16,36.5,17.71,42.28,37.06L222.8,466.61z M131.63,456.61h77.16    c-6.05-12.43-17.93-21.42-31.77-23.62c-2.25-0.36-4.59-0.54-6.94-0.54c-0.05,0-0.1,0-0.15,0l-0.21,0.01    C153.18,432.65,138.61,442.1,131.63,456.61z"/></g><g><g><path d="M449.86,356.59l-5.48-3.97c-0.57-0.41-58.17-41.24-123.64-27.81l-3.15,0.65l-1.9-2.6c-0.16-0.22-17.03-23-46.32-41.83     c-38.9-25.01-80.19-31.61-122.73-19.62l-4.39,1.24l-1.63-4.26c-0.04-0.11-5.12-12.79-20.76-27.97     c-14.48-14.06-41.24-33.21-86.5-44.61l-5.43-1.37l1.97-5.24c0.79-2.09,19.8-51.66,66.05-92.88c27.27-24.3,58.32-40.5,92.3-48.16     c42.34-9.55,89.25-5.75,139.44,11.29l0.11,0.04c2.06,0.75,50.92,18.96,91.08,65.19c23.66,27.24,39.26,58.54,46.35,93.04     c8.82,42.94,4.39,90.87-13.18,142.46L449.86,356.59z M347.89,312.1c24.99,0,47.19,6.11,63.11,12.2     c15.43,5.9,27.14,12.5,33.61,16.51c15.26-47.44,18.91-91.42,10.87-130.83c-6.69-32.76-21.46-62.52-43.89-88.44     c-37.94-43.84-85.48-62-87.18-62.64c-48.3-16.39-93.3-20.1-133.73-11.03c-32.28,7.24-61.81,22.6-87.79,45.67     c-36.09,32.05-55.35,70.39-61.45,84.05c73.91,20.22,99.9,60.1,106.61,73.09c54.82-13.98,99.21,4.16,127.05,22.14     c25.22,16.28,41.34,34.9,46.71,41.6C330.72,312.8,339.46,312.1,347.89,312.1z"/></g><g><path d="M324,322.51l-8.55-5.18c22.69-37.45,37.17-74.42,43.02-109.87c4.66-28.25,3.89-55.62-2.29-81.36     c-5.5-22.91-14.36-40.29-20.83-50.83c-4.75-7.75-8.94-13.04-11.17-15.68c-9.14,1.73-41.3,9.09-75.5,32.09     c-23.56,15.84-43.48,35.92-59.23,59.67c-19.71,29.75-32.91,65.42-39.23,106.02l-9.88-1.54c6.56-42.16,20.34-79.26,40.95-110.27     c16.54-24.88,37.46-45.89,62.21-62.45c42.14-28.21,80.3-33.66,81.9-33.88l2.51-0.34l1.76,1.83c1.01,1.04,24.82,26.13,36.09,72.44     c6.59,27.09,7.48,55.85,2.64,85.49C362.39,245.51,347.45,283.81,324,322.51z"/></g></g><g><rect height="10" transform="matrix(0.3459 -0.9383 0.9383 0.3459 -189.7718 413.1926)" width="180.64" x="111.14" y="337.7"/></g></g></svg>